<svg xmlns="http://www.w3.org/2000/svg" width="37.895" height="24" viewBox="0 0 37.895 24"><path d="M15.794,104.916s3.586-.266,3.586-4.472-2.934-6.258-6.65-6.258H.5v23.5H12.73s7.466.236,7.466-6.937c0,0,.325-5.835-4.4-5.835Zm-3.945-6.553h.88s1.662,0,1.662,2.445-.978,2.8-2.087,2.8H5.888V98.363Zm.535,15.148h-6.5V107.23H12.73s2.478-.032,2.478,3.228c0,2.749-1.851,3.032-2.823,3.053Zm17.768-13.345c-9.038,0-9.03,9.03-9.03,9.03s-.62,8.984,9.03,8.984c0,0,8.042.459,8.042-6.249H34.058s.138,2.526-3.768,2.526a3.822,3.822,0,0,1-4.136-4.089H38.332S39.664,100.166,30.152,100.166Zm-4.044,7.065a4.2,4.2,0,0,1,4.136-3.622c3.63,0,3.585,3.622,3.585,3.622Zm8.684-8.766H25.1V95.571h9.7v2.894Z" transform="translate(-0.5 -94.186)" opacity="0.2"/></svg>