<svg xmlns="http://www.w3.org/2000/svg" width="24" height="24" viewBox="0 0 24 24"><path d="M0,12A11.755,11.755,0,0,1,1.608,5.976,11.915,11.915,0,0,1,5.976,1.608,11.755,11.755,0,0,1,12,0a11.755,11.755,0,0,1,6.024,1.608,11.915,11.915,0,0,1,4.368,4.368A11.755,11.755,0,0,1,24,12a11.755,11.755,0,0,1-1.608,6.024,11.915,11.915,0,0,1-4.368,4.368A11.755,11.755,0,0,1,12,24a11.755,11.755,0,0,1-6.024-1.608,11.915,11.915,0,0,1-4.368-4.368A11.755,11.755,0,0,1,0,12Zm1.992,0a9.677,9.677,0,0,0,2.52,6.6A13.734,13.734,0,0,1,8.16,14.3a11.931,11.931,0,0,1,4.872-2.568q-.36-.84-.7-1.512a29.161,29.161,0,0,1-8.928,1.32q-.936,0-1.392-.024,0,.1-.012.24T1.992,12ZM2.3,9.528q.528.048,1.56.048A26.34,26.34,0,0,0,11.472,8.5,24.3,24.3,0,0,0,7.464,3.1,9.743,9.743,0,0,0,4.212,5.76,10.247,10.247,0,0,0,2.3,9.528ZM5.88,19.9a9.807,9.807,0,0,0,9.648,1.44,35.242,35.242,0,0,0-1.872-7.944A10.236,10.236,0,0,0,9.2,15.816,13.614,13.614,0,0,0,5.88,19.9ZM9.552,2.328a25.5,25.5,0,0,1,3.912,5.448,11.953,11.953,0,0,0,4.92-3.48A9.729,9.729,0,0,0,12,1.992,9.212,9.212,0,0,0,9.552,2.328ZM14.328,9.48q.36.768.816,1.944,1.776-.168,3.864-.168,1.488,0,2.952.072A9.635,9.635,0,0,0,19.608,5.52,11.875,11.875,0,0,1,14.328,9.48ZM15.744,13.1A34.449,34.449,0,0,1,17.4,20.4a10.014,10.014,0,0,0,3.1-3.144,9.694,9.694,0,0,0,1.44-4.152q-1.752-.12-3.192-.12Q17.424,12.984,15.744,13.1Z" opacity="0.2"/></svg>