<svg xmlns="http://www.w3.org/2000/svg" width="24.366" height="24" viewBox="0 0 24.366 24"><path d="M12.183,0A12.182,12.182,0,0,0,9.229,24a1.645,1.645,0,0,1-.091-.579V21.35H7.615A2.081,2.081,0,0,1,5.7,20.314c-.4-.731-.457-1.858-1.462-2.559-.3-.244-.061-.487.274-.457a3.2,3.2,0,0,1,1.644,1.248,1.555,1.555,0,0,0,1.614.792,12.281,12.281,0,0,0,1.706-.122,3.776,3.776,0,0,1,1.614-1.979C7,16.749,5.056,14.739,5.056,12a5.027,5.027,0,0,1,1.371-3.29c-.274-.945-.64-2.894.122-3.655a4.323,4.323,0,0,1,3.2,1.492A9.379,9.379,0,0,1,12.7,6.057a9.232,9.232,0,0,1,2.954.487,4.322,4.322,0,0,1,3.2-1.492c.731.731.4,2.71.091,3.655A4.932,4.932,0,0,1,20.284,12c0,2.741-1.919,4.752-5.969,5.178a4.237,4.237,0,0,1,1.919,3.441v2.775c0,.091-.03.182-.03.274A12.172,12.172,0,0,0,12.183,0Z" opacity="0.2"/></svg>