<svg xmlns="http://www.w3.org/2000/svg" width="25.115" height="24" viewBox="0 0 25.115 24"><path d="M0,7.788a2.611,2.611,0,0,1,.848-2A3.113,3.113,0,0,1,3.055,5a3.02,3.02,0,0,1,2.158.776,2.734,2.734,0,0,1,.848,2.085A2.553,2.553,0,0,1,5.236,9.8a3.118,3.118,0,0,1-2.23.8H2.982A2.967,2.967,0,0,1,.824,9.8,2.687,2.687,0,0,1,0,7.788ZM.315,29V12.806H5.7V29Zm8.364,0h5.382V19.958a3.156,3.156,0,0,1,1.224-2.7,2.634,2.634,0,0,1,1.733-.57q2.715,0,2.715,3.661V29h5.382V19.715a7.8,7.8,0,0,0-1.7-5.442,5.789,5.789,0,0,0-4.485-1.855,5.5,5.5,0,0,0-4.873,2.691v.048h-.024l.024-.048v-2.3H8.679q.048.776.048,4.824T8.679,29Z" transform="translate(0 -5)" opacity="0.2"/></svg>