<svg xmlns="http://www.w3.org/2000/svg" width="82.152" height="29.652" viewBox="0 0 82.152 29.652"><path d="M4.158.252A4.361,4.361,0,0,1,.9-1.008,5.188,5.188,0,0,1-.336-4.788,14.563,14.563,0,0,1,0-7.518l2.52-11.8H1.134L1.47-21H2.856l1.26-5.8,6.216-.84L8.9-21h2.52l-.336,1.68H8.568L5.88-6.72a5.2,5.2,0,0,0-.168,1.344,1.541,1.541,0,0,0,.4,1.2,1.969,1.969,0,0,0,1.323.357A3.2,3.2,0,0,0,9.7-4.851a5.881,5.881,0,0,0,1.512-2.667h1.764q-1.554,4.536-3.99,6.153A8.7,8.7,0,0,1,4.158.252Zm12.18,0a4.361,4.361,0,0,1-3.255-1.26,5.188,5.188,0,0,1-1.239-3.78,14.563,14.563,0,0,1,.336-2.73L15.036-21h6.048L18.06-6.72a6.017,6.017,0,0,0-.126,1.176q0,1.722,1.26,1.722a2.563,2.563,0,0,0,2.016-.987,7.313,7.313,0,0,0,1.344-2.709L25.41-21h6.048L28.434-6.72a5.2,5.2,0,0,0-.168,1.344,1.541,1.541,0,0,0,.4,1.2,1.969,1.969,0,0,0,1.323.357A2.6,2.6,0,0,0,32.025-4.83,7.339,7.339,0,0,0,33.39-7.518h1.764Q33.6-2.982,31.311-1.365a7.925,7.925,0,0,1-4.6,1.617A4.027,4.027,0,0,1,23.835-.756a4.609,4.609,0,0,1-1.281-2.982,8.49,8.49,0,0,1-3,3.15A6.755,6.755,0,0,1,16.338.252ZM37.212-21H43.26l-.546,2.6A16.833,16.833,0,0,1,45.3-20.328,4.884,4.884,0,0,1,47.8-21a2.625,2.625,0,0,1,2.121.924,3.345,3.345,0,0,1,.777,2.226,3.178,3.178,0,0,1-.8,2.142,2.784,2.784,0,0,1-2.226.924,1.44,1.44,0,0,1-1.239-.441,3.356,3.356,0,0,1-.483-1.281,3.856,3.856,0,0,0-.252-.8.469.469,0,0,0-.462-.252,2.9,2.9,0,0,0-1.491.357,10.25,10.25,0,0,0-1.575,1.239L38.808,0H32.76ZM56.7.252a6.184,6.184,0,0,1-4.368-1.407A5.154,5.154,0,0,1,50.82-5.124a9.505,9.505,0,0,1,.294-2.394L55.608-28.56l6.216-.84-2.016,9.45A9.134,9.134,0,0,1,61.74-20.9a5.15,5.15,0,0,1,1.512-.231q4.62,0,4.956,6.3,2.856-.546,6.468-6.636l6.216-.84q.21,5.376.714,11.634.21,2.52.21,3.654,0,3.78-2.184,5.523A8.093,8.093,0,0,1,74.424.252q-3.36,0-4.6-1.6a6.311,6.311,0,0,1-1.239-3.99,4.354,4.354,0,0,1,.924-2.877,2.693,2.693,0,0,1,2.1-1.113q2.184,0,2.184,1.764a1.783,1.783,0,0,1-.588,1.323,1.981,1.981,0,0,1-1.428.567,1.116,1.116,0,0,1-1.134-.546,3.851,3.851,0,0,0,.609,2.331,2.131,2.131,0,0,0,1.827.819,2.321,2.321,0,0,0,2.037-.861,5.541,5.541,0,0,0,.609-3.045,25.572,25.572,0,0,0-.252-3.192Q75.054-14.2,74.8-18.4a13.526,13.526,0,0,1-6.636,5.67,19.021,19.021,0,0,1-1.428,5.9,12.643,12.643,0,0,1-3.717,5.019A9.613,9.613,0,0,1,56.7.252Zm2.352-4.074A2.848,2.848,0,0,0,61.215-5.1a10.874,10.874,0,0,0,1.722-3.3,19.933,19.933,0,0,0,.945-4.116,1.965,1.965,0,0,1-.672-1.68,2.643,2.643,0,0,1,.546-1.722A4.04,4.04,0,0,0,63-17.535a1.57,1.57,0,0,0-1.26-.609,6.007,6.007,0,0,0-1.407.189,1.883,1.883,0,0,0-1.071.567L56.952-6.72a3.982,3.982,0,0,0-.126.966Q56.826-3.822,59.052-3.822Z" transform="translate(0.336 29.4)"/></svg>