<svg xmlns="http://www.w3.org/2000/svg" width="527.5" height="363.75" viewBox="0 0 527.5 363.75"><g transform="translate(-420 -155.75)"><line x2="527" transform="translate(420.5 332.5)" fill="none" stroke="#000" stroke-width="1"/><line x2="79" transform="translate(420.5 354.5)" fill="none" stroke="#000" stroke-width="1" stroke-dasharray="2"/><line x2="468" transform="translate(440.5 457.5)" fill="none" stroke="#000" stroke-width="1"/><line y2="64" transform="translate(420.5 290.5)" fill="none" stroke="#000" stroke-width="1"/><line y2="230" transform="translate(438.5 289.5)" fill="none" stroke="#000" stroke-width="1" stroke-dasharray="2"/><line y2="99.75" transform="translate(459.5 256.5)" fill="none" stroke="#000" stroke-width="1"/><line y2="169" transform="translate(478.5 185.5)" fill="none" stroke="#000" stroke-width="1" stroke-dasharray="2"/><line y2="170" transform="translate(499.5 162.5)" fill="none" stroke="#000" stroke-width="1"/><line y2="171" transform="translate(521.5 162.5)" fill="none" stroke="#000" stroke-width="1" stroke-dasharray="2"/><line y2="167" transform="translate(576.5 290.5)" fill="none" stroke="#000" stroke-width="1"/><line y2="125" transform="translate(598.5 332.5)" fill="none" stroke="#000" stroke-width="1" stroke-dasharray="2"/><line y2="190" transform="translate(622.5 266.5)" fill="none" stroke="#000" stroke-width="1"/><line y2="170" transform="translate(644.5 162.5)" fill="none" stroke="#000" stroke-width="1" stroke-dasharray="2"/><line y2="42" transform="translate(697.5 290.5)" fill="none" stroke="#000" stroke-width="1"/><line y2="159.75" transform="translate(716.5 290.5)" fill="none" stroke="#000" stroke-width="1" stroke-dasharray="2"/><line y2="301.25" transform="translate(738.5 155.75)" fill="none" stroke="#000" stroke-width="1"/><line y2="135" transform="translate(844.5 198.5)" fill="none" stroke="#000" stroke-width="1" stroke-dasharray="2"/><line y2="182" transform="translate(860.5 185.5)" fill="none" stroke="#000" stroke-width="1"/><line y2="171" transform="translate(946.5 162.5)" fill="none" stroke="#000" stroke-width="1" stroke-dasharray="2"/><line x2="298" transform="translate(440.5 290.5)" fill="none" stroke="#000" stroke-width="1" stroke-dasharray="2"/><path d="M75.5-87.75a23.061,23.061,0,0,0-3.25-8.5Q67.5-104.5,53.5-104.5q-7.5,0-11.5,1.75A16.376,16.376,0,0,0,34.125-97,14.074,14.074,0,0,0,31.5-88.75a14.7,14.7,0,0,0,4,10q4.25,4.75,13.75,5,16.75.75,27.125,4a29.708,29.708,0,0,1,16,11.25Q98-50.5,98-36q0,14.75-11.25,25.5A44.371,44.371,0,0,1,73.875-2,37.729,37.729,0,0,1,58.5,1.25H54.75q-20,0-32.25-11.5-10-9.25-12.5-26H32.25a18.843,18.843,0,0,0,5,9.75Q43-21,53.25-21a22.656,22.656,0,0,0,4-.25Q66-21.75,71-26.125A13.869,13.869,0,0,0,76-37q0-9-5.5-11.75T49.25-51.5Q29.5-51.5,19-64q-8.5-9.5-8.5-24a37.8,37.8,0,0,1,.25-5q2-16.25,13.375-24.875T54.25-126.5q13.75,0,24,6A40.628,40.628,0,0,1,90.75-108q5,8,6.5,20l-.5.25Z" transform="translate(849 457)"/><path d="M50-102.5V0H28.75V-102.5H10V-125H28.75v-41.25H50V-125H68.75v22.5Z" transform="translate(410 457)"/><path d="M87.5-.75v-10.5A40.526,40.526,0,0,1,74.875-2.5,36.028,36.028,0,0,1,59.75,1,48.434,48.434,0,0,1,40.625-2.875,50.522,50.522,0,0,1,24.5-13.75,52.674,52.674,0,0,1,13.875-29.875,49.052,49.052,0,0,1,10-49.25V-125H32v75.75A26.946,26.946,0,0,0,40.25-29.5a26.662,26.662,0,0,0,19.5,8.25,26.469,26.469,0,0,0,10.5-2.25,28.373,28.373,0,0,0,9-6A26.946,26.946,0,0,0,87.5-49.25V-125h21.75V-.75Z" transform="translate(489 457)"/><path d="M68.25-101a26.256,26.256,0,0,0-10.75-2.75,21.537,21.537,0,0,0-16.5,7A24.544,24.544,0,0,0,34-79.5V0H12.5V-79.5a46.556,46.556,0,0,1,6.875-24.75,47.215,47.215,0,0,1,18.875-17.5A44.517,44.517,0,0,1,57.5-126a42.016,42.016,0,0,1,15.75,3A61.458,61.458,0,0,1,89-113.25Z" transform="translate(610 457)"/><path d="M76,1.25a49.522,49.522,0,0,1-22.625-5.5,59.682,59.682,0,0,1-18.875-15V0h-22V-166h22v59q5.5-7.75,16.375-13.75t25.125-6a61.949,61.949,0,0,1,24.5,5A61.394,61.394,0,0,1,120.75-108a65.865,65.865,0,0,1,13.625,20.625A63.028,63.028,0,0,1,139.25-62.75a63.028,63.028,0,0,1-4.875,24.625A65.865,65.865,0,0,1,120.75-17.5,61.394,61.394,0,0,1,100.5-3.75,61.949,61.949,0,0,1,76,1.25ZM76-104a41.47,41.47,0,0,0-15.875,3.125A37.72,37.72,0,0,0,47-92a44.261,44.261,0,0,0-8.75,13.375A40.086,40.086,0,0,0,35-62.75Q35-46,47-33.5a39.206,39.206,0,0,0,13.125,9A40.086,40.086,0,0,0,76-21.25,39.2,39.2,0,0,0,91.75-24.5a39.535,39.535,0,0,0,13-9q12-12.5,12-29.25a40.086,40.086,0,0,0-3.25-15.875A44.261,44.261,0,0,0,104.75-92a38,38,0,0,0-13-8.875A40.546,40.546,0,0,0,76-104Z" transform="translate(704 457)"/><rect width="21.24" height="63" transform="translate(438.75 456)"/><text transform="translate(499 493)" font-size="36" font-family="SulphurPoint-Bold, Sulphur Point" font-weight="700" letter-spacing="0.023em"><tspan x="0" y="0">habiso Mohatlane Portfolio</tspan></text><rect width="21.3" height="5" transform="translate(576.75 453)"/></g></svg>